<svg width="105" height="100" viewBox="0 0 105 100" fill="none" xmlns="http://www.w3.org/2000/svg">
<g clip-path="url(#clip0_68_2184)">
<path d="M103.141 70.6292C103.898 70.2928 104.785 70.6339 105.122 71.3909C105.458 72.148 105.117 73.035 104.36 73.3714L53.7351 95.8714C53.3472 96.0438 52.9042 96.0438 52.5163 95.8714L1.89133 73.3714L1.75461 73.3021C1.09443 72.9247 0.814144 72.1007 1.12961 71.3909C1.44503 70.6812 2.24415 70.3376 2.96653 70.5745L3.11008 70.6292L53.1257 92.8577L103.141 70.6292ZM103.141 48.1292C103.898 47.7928 104.785 48.1339 105.122 48.8909C105.458 49.648 105.117 50.535 104.36 50.8714L53.7351 73.3714C53.3472 73.5438 52.9042 73.5438 52.5163 73.3714L1.89133 50.8714L1.75461 50.8021C1.09443 50.4248 0.814144 49.6007 1.12961 48.8909C1.44503 48.1812 2.24415 47.8376 2.96653 48.0745L3.11008 48.1292L53.1257 70.3577L103.141 48.1292ZM52.6648 3.07258C53.0145 2.95966 53.3959 2.97847 53.7351 3.12922L104.36 25.6292C104.902 25.87 105.251 26.4075 105.251 27.0003C105.251 27.5931 104.902 28.1307 104.36 28.3714L53.7351 50.8714C53.3472 51.0438 52.9042 51.0438 52.5163 50.8714L1.89133 28.3714C1.34964 28.1307 1.00071 27.5931 1.00071 27.0003C1.00071 26.4075 1.34964 25.87 1.89133 25.6292L52.5163 3.12922L52.6648 3.07258ZM6.19504 27.0003L53.1257 47.8577L100.056 27.0003L53.1257 6.14192L6.19504 27.0003Z" fill="#3758A1"/>
</g>
<defs>
<clipPath id="clip0_68_2184">
<rect width="105" height="100" fill="white"/>
</clipPath>
</defs>
</svg>
