<svg width="18" height="18" viewBox="0 0 18 18" fill="none" xmlns="http://www.w3.org/2000/svg">
<path d="M9 3C8.23002 3 7.49157 3.31167 6.94711 3.86646C6.40265 4.42124 6.09677 5.17368 6.09677 5.95827C6.09677 6.74285 6.40265 7.49529 6.94711 8.05008C7.49157 8.60486 8.23002 8.91653 9 8.91653C9.76998 8.91653 10.5084 8.60486 11.0529 8.05008C11.5974 7.49529 11.9032 6.74285 11.9032 5.95827C11.9032 5.17368 11.5974 4.42124 11.0529 3.86646C10.5084 3.31167 9.76998 3 9 3ZM5.90323 10.4943C5.13324 10.4943 4.3948 10.8059 3.85034 11.3607C3.30587 11.9155 3 12.668 3 13.4525V14.3897C3 14.9845 3.42271 15.491 3.99871 15.5864C7.31071 16.1379 10.6893 16.1379 14.0013 15.5864C14.2799 15.5397 14.5331 15.3938 14.716 15.1747C14.8989 14.9555 14.9995 14.6774 15 14.3897V13.4525C15 12.668 14.6941 11.9155 14.1497 11.3607C13.6052 10.8059 12.8668 10.4943 12.0968 10.4943H11.8335C11.689 10.4948 11.5486 10.5174 11.4124 10.5621L10.7419 10.7854C9.61004 11.1619 8.38996 11.1619 7.25806 10.7854L6.58761 10.5621C6.45172 10.5177 6.30994 10.4948 6.16723 10.4943H5.90323Z" fill="#3758A1"/>
</svg>
