<svg width="30" height="30" viewBox="0 0 30 30" fill="none" xmlns="http://www.w3.org/2000/svg">
<path d="M9.52 25C8.96 25 8.48333 24.8033 8.09 24.41C7.69667 24.0167 7.5 23.5404 7.5 22.9813V7.50001H6.25V6.25001H11.25V5.28751H18.75V6.25001H23.75V7.50001H22.5V22.9813C22.5 23.5563 22.3075 24.0367 21.9225 24.4225C21.5375 24.8083 21.0567 25.0008 20.48 25H9.52ZM21.25 7.50001H8.75V22.9813C8.75 23.2054 8.82208 23.3896 8.96625 23.5338C9.11042 23.6779 9.295 23.75 9.52 23.75H20.4813C20.6729 23.75 20.8492 23.67 21.01 23.51C21.1708 23.35 21.2508 23.1733 21.25 22.98V7.50001ZM12.26 21.25H13.51V10H12.26V21.25ZM16.49 21.25H17.74V10H16.49V21.25Z" fill="#3758A1"/>
</svg>
