<svg width="18" height="18" viewBox="0 0 18 18" fill="none" xmlns="http://www.w3.org/2000/svg">
<g clip-path="url(#clip0_23_322)">
<path d="M11.7 15.3C11.6946 15.5397 11.7371 15.7781 11.8251 16.0011C11.913 16.2242 12.0447 16.4274 12.2123 16.5989C12.3799 16.7703 12.58 16.9066 12.801 16.9996C13.022 17.0927 13.2593 17.1406 13.4991 17.1407C13.7389 17.1408 13.9762 17.0929 14.1972 17C14.4183 16.907 14.6185 16.7709 14.7862 16.5995C14.9538 16.4281 15.0856 16.225 15.1737 16.002C15.2618 15.779 15.3044 15.5406 15.2991 15.3009C15.2887 14.8306 15.0946 14.383 14.7583 14.0541C14.4221 13.7251 13.9704 13.5408 13.5 13.5407C13.0296 13.5406 12.5778 13.7246 12.2414 14.0534C11.905 14.3823 11.7106 14.8297 11.7 15.3ZM2.7 15.3C2.7 15.7774 2.88964 16.2352 3.22721 16.5728C3.56477 16.9104 4.02261 17.1 4.5 17.1C4.97739 17.1 5.43523 16.9104 5.77279 16.5728C6.11036 16.2352 6.3 15.7774 6.3 15.3C6.3 14.8226 6.11036 14.3648 5.77279 14.0272C5.43523 13.6896 4.97739 13.5 4.5 13.5C4.02261 13.5 3.56477 13.6896 3.22721 14.0272C2.88964 14.3648 2.7 14.8226 2.7 15.3ZM5.8923 10.9548L15.8535 8.109C15.9512 8.07696 16.0367 8.01582 16.0986 7.93377C16.1606 7.85173 16.1959 7.75272 16.2 7.65V2.7H3.6V1.26C3.6 1.062 3.4371 0.900002 3.2409 0.900002H0.3591C0.263778 0.90024 0.172442 0.938273 0.105123 1.00576C0.0378046 1.07325 -2.97881e-07 1.16468 0 1.26L0 2.7H1.8L3.519 10.7613L3.6 11.61V13.0941C3.6 13.2912 3.762 13.4541 3.96 13.4541H15.84C16.038 13.4541 16.2 13.2903 16.2 13.0941V11.7H6.0768C5.0418 11.7 5.0202 11.2041 5.8923 10.9548Z" fill="#3758A1"/>
</g>
<defs>
<clipPath id="clip0_23_322">
<rect width="18" height="18" fill="white"/>
</clipPath>
</defs>
</svg>
