<svg width="100" height="59" viewBox="0 0 100 59" fill="none" xmlns="http://www.w3.org/2000/svg">
<g clip-path="url(#clip0_61_1244)">
<path d="M41.6282 14.1384H34.7354C33.5142 14.1384 32.3202 13.6771 31.4247 12.8358L24.5862 6.48577H0V1.49255H24.6404C25.8616 1.49255 27.0285 1.95388 27.9512 2.79513L34.7897 9.1452H41.6282V14.1384Z" fill="#3758A1"/>
<path d="M41.6282 21.2212H32.3202C31.099 21.2212 29.905 20.7599 29.0095 19.9186L22.171 13.5685H0V8.57532H22.2252C23.4464 8.57532 24.6133 9.03665 25.536 9.8779L32.3745 16.228H41.6282V21.2212Z" fill="black"/>
<path d="M65.2639 14.1384H58.3711V9.1452H65.2096L72.0482 2.79513C72.9437 1.95388 74.1106 1.49255 75.3589 1.49255H99.9993V6.48577H75.4132L68.5746 12.8358C67.6791 13.6771 66.4851 14.1384 65.2639 14.1384Z" fill="#3758A1"/>
<path d="M67.6791 21.2212H58.3711V16.228H67.6248L74.4634 9.8779C75.3589 9.03665 76.5258 8.57532 77.7741 8.57532H99.9993V13.5685H77.8283L70.9898 19.9186C70.0672 20.7599 68.9003 21.2212 67.6791 21.2212Z" fill="black"/>
<path d="M44.9125 9.76934V11.0448L55.0075 9.76934C55.0075 8.46676 56.0659 7.40841 57.3684 7.40841H61.9275V4.01628C61.9275 1.79105 60.1364 0 57.9112 0H42.0632C39.8379 0 38.0469 1.79105 38.0469 4.01628V7.40841H42.5516C43.8542 7.40841 44.9125 8.46676 44.9125 9.76934Z" fill="#3758A1"/>
<path d="M44.912 40.5427V41.194L55.0341 39.9186H44.125L44.912 40.5427Z" fill="#3758A1"/>
<path d="M55.0352 19.8915L57.5046 18.3718L55.0352 17.6119V16.1737L57.5046 14.654L55.0352 13.8942V12.4559L57.5046 10.9362L55.0352 10.1764V10.9905L42.4707 12.5645L44.913 14.5455V15.1696L55.0352 13.8942V14.7083L42.4707 16.2822L44.913 18.2632V18.8874L55.0352 17.6119V18.4261L42.4707 20L43.9632 21.2212H55.0352V19.8915Z" fill="#3758A1"/>
<path d="M55.0352 40.7327L42.4707 42.3066L44.913 44.2605V44.9118L55.0352 43.6364V42.1981L57.5046 40.6513L55.0352 39.9186V40.7327Z" fill="#3758A1"/>
<path d="M54.5195 44.4505L43.2305 45.8616L45.4286 47.6255V48.1954L54.5195 47.0556V45.7531L56.7447 44.3691L54.5195 43.7178V44.4505Z" fill="#3758A1"/>
<path d="M54.0575 47.7883L43.9082 49.0366L45.8892 50.6377V51.1533L54.0575 50.1221V48.9552L56.0656 47.7069L54.0575 47.1099V47.7883Z" fill="#3758A1"/>
<path d="M53.5687 50.7734L44.6406 51.886L46.4045 53.2971V53.7584L53.5687 52.8358V51.8046L55.3055 50.7191L53.5687 50.2035V50.7734Z" fill="#3758A1"/>
<path d="M50.041 58.6975L52.2663 53.7585L47.7344 54.3284L50.041 58.6975Z" fill="#3758A1"/>
<path d="M0 24.2877H3.36499V33.5143H9.03663V36.1737H0V24.2877Z" fill="#3758A1"/>
<path d="M18.1556 29.9865H21.1407V34.9254C20.4622 35.4139 19.6753 35.7938 18.8069 36.038C17.9114 36.3094 17.043 36.418 16.1474 36.418C14.8991 36.418 13.7865 36.1466 12.7825 35.631C11.7784 35.1154 10.9914 34.3827 10.4487 33.4329C9.87879 32.4831 9.60742 31.4247 9.60742 30.2307C9.60742 29.0367 9.87879 27.9783 10.4487 27.0285C11.0185 26.0787 11.8055 25.346 12.8096 24.8304C13.8137 24.3148 14.9534 24.0435 16.2289 24.0435C17.3415 24.0435 18.3455 24.2334 19.2139 24.6133C20.1095 24.9933 20.8422 25.536 21.412 26.2416L19.2682 28.1683C18.4541 27.2728 17.5043 26.8386 16.3645 26.8386C15.3333 26.8386 14.5192 27.1371 13.8951 27.7612C13.2709 28.3854 12.9724 29.1995 12.9724 30.2307C12.9724 30.882 13.1081 31.479 13.4066 31.9946C13.678 32.5102 14.085 32.9173 14.6006 33.1886C15.1162 33.4872 15.6861 33.6228 16.3645 33.6228C17.0158 33.6228 17.6128 33.4872 18.1827 33.2429V29.9865H18.1556Z" fill="#3758A1"/>
<path d="M24.6669 36.0652C23.7713 35.8209 23.0115 35.5224 22.4688 35.1154L23.5814 32.6459C24.1241 32.9987 24.7211 33.2701 25.4267 33.4872C26.1322 33.7042 26.8107 33.8128 27.4891 33.8128C28.7917 33.8128 29.4158 33.4872 29.4158 32.8359C29.4158 32.4831 29.2259 32.2388 28.8731 32.076C28.4932 31.9132 27.9233 31.7504 27.1092 31.5604C26.2137 31.3705 25.4538 31.1534 24.8568 30.9363C24.2598 30.7192 23.7442 30.3664 23.31 29.8779C22.8758 29.3895 22.6587 28.7382 22.6587 27.8969C22.6587 27.1642 22.8487 26.5129 23.2557 25.9431C23.6628 25.346 24.2327 24.8847 25.0196 24.5591C25.8066 24.2063 26.7835 24.0435 27.9233 24.0435C28.7103 24.0435 29.4701 24.1249 30.2299 24.3148C30.9898 24.4776 31.6682 24.749 32.2381 25.1018L31.2069 27.5984C30.0671 26.9743 28.9816 26.6758 27.8962 26.6758C27.2177 26.6758 26.7293 26.7843 26.4308 26.9743C26.1323 27.1642 25.9694 27.4356 25.9694 27.7612C25.9694 28.0869 26.1594 28.304 26.5122 28.4668C26.8649 28.6296 27.462 28.7924 28.2761 28.9553C29.1716 29.1452 29.9314 29.3623 30.5285 29.5794C31.1255 29.7965 31.6411 30.1493 32.0753 30.6378C32.5095 31.1262 32.7266 31.7775 32.7266 32.5916C32.7266 33.2972 32.5366 33.9485 32.1295 34.5184C31.7225 35.0882 31.1255 35.5496 30.3385 35.9023C29.5515 36.2551 28.5746 36.418 27.4348 36.418C26.485 36.418 25.5624 36.3094 24.6669 36.0652Z" fill="#3758A1"/>
<path d="M36.8528 35.631C35.8487 35.1154 35.0889 34.3827 34.519 33.4329C33.9491 32.4831 33.6777 31.4247 33.6777 30.2307C33.6777 29.0367 33.9491 27.9783 34.519 27.0285C35.0889 26.0787 35.8758 25.346 36.8528 24.8304C37.8568 24.3148 38.9695 24.0435 40.2178 24.0435C41.3032 24.0435 42.2802 24.2334 43.1486 24.6133C44.0169 24.9933 44.7496 25.5631 45.3195 26.2687L43.1757 28.1954C42.4159 27.2728 41.4661 26.8114 40.3806 26.8114C39.7293 26.8114 39.1594 26.9471 38.6438 27.2456C38.1282 27.517 37.7483 27.9241 37.4769 28.4397C37.2056 28.9553 37.0699 29.5523 37.0699 30.2036C37.0699 30.882 37.2056 31.4519 37.4769 31.9675C37.7483 32.4831 38.1553 32.8901 38.6438 33.1615C39.1594 33.4329 39.7293 33.5957 40.3806 33.5957C41.4932 33.5957 42.4159 33.1344 43.1757 32.2117L45.3195 34.1384C44.7496 34.8711 44.0169 35.4139 43.1486 35.7938C42.2802 36.1737 41.3032 36.3637 40.2178 36.3637C38.9695 36.4179 37.8568 36.1466 36.8528 35.631Z" fill="black"/>
<path d="M52.0211 33.0258H50.2029V36.2009H46.8379V24.2877H52.2924C53.3779 24.2877 54.3006 24.4777 55.0875 24.8305C55.8745 25.1832 56.4987 25.6988 56.9329 26.3501C57.3671 27.0014 57.5842 27.7884 57.5842 28.6839C57.5842 29.5523 57.3942 30.285 56.9871 30.9363C56.5801 31.5876 56.0102 32.0761 55.2504 32.4288L57.8284 36.1737H54.2192L52.0211 33.0258ZM53.6222 27.3813C53.2694 27.0828 52.7538 26.92 52.0482 26.92H50.2029V30.3936H52.0753C52.7538 30.3936 53.2965 30.2307 53.6493 29.9322C54.0021 29.6337 54.1649 29.1995 54.1649 28.6568C54.1649 28.114 53.9749 27.707 53.6222 27.3813Z" fill="black"/>
<path d="M68.7375 24.2877H59.4023V26.8929H68.7375V24.2877Z" fill="#3758A1"/>
<path d="M62.7402 33.5686V31.3976H68.0319V28.8739H59.4023V36.1738H68.9546V33.5686H62.7402Z" fill="black"/>
<path d="M89.3351 24.2877L85.4817 36.1737H81.8724L79.5929 28.9282L77.2049 36.1737H73.5957L69.7422 24.2877H73.2157L75.6038 31.8861L78.1275 24.2877H81.2212L83.6092 31.9675L86.1058 24.2877H89.3351Z" fill="black"/>
<path d="M91.9129 36.0652C91.0174 35.8209 90.2576 35.5224 89.7148 35.1154L90.8275 32.6459C91.3702 32.9987 91.9672 33.2701 92.6728 33.4872C93.3783 33.7042 94.0568 33.8128 94.7352 33.8128C96.0378 33.8128 96.6619 33.4872 96.6619 32.8359C96.6619 32.4831 96.472 32.2388 96.1192 32.076C95.7393 31.9132 95.1694 31.7504 94.3553 31.5604C93.4598 31.3705 92.6999 31.1534 92.1029 30.9363C91.5059 30.7192 90.9903 30.3664 90.5561 29.8779C90.1219 29.3895 89.9048 28.7382 89.9048 27.8969C89.9048 27.1642 90.0948 26.5129 90.5018 25.9431C90.9089 25.346 91.4787 24.8847 92.2657 24.5591C93.0527 24.2063 94.0296 24.0435 95.1694 24.0435C95.9564 24.0435 96.7162 24.1249 97.476 24.3148C98.2359 24.4776 98.9143 24.749 99.4842 25.1018L98.453 27.5984C97.3132 26.9743 96.2277 26.6758 95.1423 26.6758C94.4638 26.6758 93.9754 26.7843 93.6769 26.9743C93.3783 27.1642 93.2155 27.4356 93.2155 27.7612C93.2155 28.0869 93.4055 28.304 93.7583 28.4668C94.111 28.6296 94.7081 28.7924 95.5222 28.9553C96.4177 29.1452 97.1775 29.3623 97.7745 29.5794C98.3716 29.7965 98.8872 30.1493 99.3214 30.6378C99.7555 31.1262 99.9726 31.7775 99.9726 32.5916C99.9726 33.2972 99.7827 33.9485 99.3756 34.5184C98.9686 35.0882 98.3716 35.5496 97.5846 35.9023C96.7976 36.2551 95.8207 36.418 94.6809 36.418C93.7583 36.418 92.8356 36.3094 91.9129 36.0652Z" fill="black"/>
</g>
<defs>
<clipPath id="clip0_61_1244">
<rect width="100" height="58.6974" fill="white"/>
</clipPath>
</defs>
</svg>
