<svg width="190" height="190" viewBox="0 0 190 190" fill="none" xmlns="http://www.w3.org/2000/svg">
<circle cx="95" cy="95" r="95" fill="#3758A1"/>
<path d="M77.5121 113.338C85.0496 113.338 90.4679 108.929 90.4679 102.919C90.4679 98.0418 86.9707 94.8404 81.3543 94.4707V94.3722C86.0343 93.5836 88.94 90.4561 88.94 86.0718C88.94 80.7511 84.1132 76.9089 77.4136 76.9089C72.3404 76.9089 68.2271 79.1257 66.4775 82.7954C66.035 83.7061 65.8132 84.5439 65.8132 85.505C65.8132 86.6622 66.6007 87.4261 67.7343 87.4261C68.8679 87.4261 69.3596 87.0082 69.7293 85.85C70.7879 82.6229 73.4975 80.7757 77.2657 80.7757C81.65 80.7757 84.4829 83.0911 84.4829 86.6622C84.4829 90.3329 81.4775 92.7704 77.0439 92.7704H74.3354C73.1782 92.7704 72.4143 93.485 72.4143 94.6186C72.4143 95.7264 73.1771 96.4657 74.3354 96.4657H77.0932C82.5618 96.4657 85.8125 98.78 85.8125 102.894C85.8125 106.687 82.4375 109.372 77.5625 109.372C73.3004 109.372 70.2468 107.476 69.1379 104.224C68.7682 103.165 68.1521 102.697 67.1182 102.697C65.8379 102.697 65 103.486 65 104.766C65 105.629 65.2218 106.416 65.69 107.279C67.7343 111.17 72.02 113.338 77.5121 113.338ZM97.4879 112.721H107.586C118.622 112.721 125 106.145 125 95.0375C125 83.9289 118.621 77.5004 107.586 77.5004H97.4879C96.1336 77.5004 95.2711 78.3864 95.2711 79.7654V110.431C95.2711 111.834 96.1336 112.721 97.4879 112.721ZM99.7293 108.682V81.4893H107.29C115.74 81.4893 120.443 86.4157 120.443 95.0611C120.443 103.756 115.74 108.682 107.29 108.682H99.7293Z" fill="white"/>
<path d="M161.149 99.465C161.258 97.8036 161.862 96.1596 162.641 95.2788L164.413 96.222C163.712 97.0628 163.176 98.3505 163.093 99.6077C162.999 101.045 163.44 101.66 164.083 101.702C166.044 101.831 165.097 95.6506 168.989 95.9062C170.77 96.0231 172.157 97.5574 171.962 100.536C171.875 101.853 171.472 103.18 170.795 104.112L169.003 103.243C169.621 102.306 169.956 101.321 170.017 100.393C170.111 98.9563 169.609 98.3671 168.95 98.3238C167.019 98.197 167.951 104.376 164.105 104.124C162.353 104.009 160.952 102.459 161.149 99.465Z" fill="white" fill-opacity="0.6"/>
<path d="M159.491 110.515C160.21 107.341 162.956 105.471 166.043 106.171C169.13 106.87 170.802 109.74 170.079 112.93C169.678 114.7 168.699 116.031 167.31 116.732L166.251 114.892C167.196 114.384 167.802 113.613 168.034 112.589C168.468 110.673 167.43 109.007 165.499 108.57C163.568 108.132 161.914 109.188 161.48 111.104C161.248 112.128 161.462 113.084 162.111 113.954L160.362 115.157C159.395 113.923 159.086 112.3 159.491 110.515Z" fill="white" fill-opacity="0.6"/>
<path d="M154.627 124.892L155.617 122.476L159.091 121.712L159.939 119.644L157.232 118.535L158.154 116.286L167.87 120.268L166.146 124.473C165.083 127.069 163.071 128.141 160.892 127.248C159.434 126.651 158.667 125.477 158.643 123.992L154.627 124.892ZM161.824 124.972C162.893 125.41 163.802 124.972 164.365 123.598L165.116 121.765L161.729 120.378L160.979 122.21C160.416 123.584 160.77 124.539 161.824 124.972Z" fill="white" fill-opacity="0.6"/>
<path d="M154.063 129.605L151.066 134.471L149.406 133.449L153.669 126.526L162.61 132.032L158.449 138.788L156.788 137.766L159.683 133.066L157.742 131.87L155.185 136.021L153.576 135.03L156.132 130.879L154.063 129.605Z" fill="white" fill-opacity="0.6"/>
<path d="M147.075 151.96L145.485 153.657L140.17 143.972L141.954 142.067L148.723 145.242L145.164 138.64L146.938 136.746L156.96 141.406L155.237 143.246L148.23 139.93L151.925 146.782L150.387 148.424L143.316 145.089L147.075 151.96Z" fill="white" fill-opacity="0.6"/>
<path d="M133.78 148.679C135.133 147.71 136.787 147.134 137.963 147.178L138.358 149.146C137.263 149.137 135.928 149.54 134.903 150.273C133.733 151.112 133.536 151.843 133.912 152.367C135.056 153.965 139.233 149.312 141.504 152.482C142.544 153.934 142.238 155.979 139.811 157.718C138.738 158.486 137.457 159.016 136.306 159.084L135.842 157.148C136.958 157.031 137.932 156.665 138.688 156.124C139.859 155.285 139.995 154.523 139.611 153.986C138.484 152.413 134.298 157.054 132.054 153.92C131.032 152.493 131.341 150.426 133.78 148.679Z" fill="white" fill-opacity="0.6"/>
<path d="M113.126 158.578C114.73 158.13 116.481 158.155 117.571 158.599L117.268 160.583C116.242 160.2 114.85 160.121 113.636 160.46C112.249 160.847 111.815 161.467 111.988 162.088C112.516 163.981 118.034 161.039 119.082 164.795C119.562 166.515 118.575 168.332 115.699 169.135C114.428 169.49 113.043 169.549 111.939 169.219L112.165 167.24C113.253 167.513 114.294 167.503 115.19 167.253C116.577 166.865 116.966 166.196 116.788 165.56C116.268 163.697 110.747 166.624 109.71 162.911C109.239 161.22 110.237 159.385 113.126 158.578Z" fill="white" fill-opacity="0.6"/>
<path d="M102.357 160.622C105.59 160.246 108.265 162.216 108.63 165.359C108.995 168.503 106.843 171.033 103.595 171.411C101.792 171.62 100.211 171.139 99.0891 170.062L100.473 168.451C101.266 169.174 102.194 169.49 103.237 169.368C105.189 169.142 106.415 167.61 106.187 165.643C105.958 163.676 104.413 162.467 102.461 162.693C101.419 162.814 100.588 163.334 99.9828 164.235L98.267 162.984C99.1103 161.663 100.539 160.833 102.357 160.622Z" fill="white" fill-opacity="0.6"/>
<path d="M86.7891 160.781L89.3953 160.922L91.2594 163.952L93.4912 164.073L93.6491 161.152L96.0755 161.284L95.5086 171.768L90.9702 171.523C88.1693 171.371 86.4954 169.824 86.6226 167.472C86.7076 165.9 87.5639 164.789 88.9585 164.279L86.7891 160.781ZM89.079 167.605C89.0167 168.758 89.7291 169.473 91.2119 169.553L93.1891 169.66L93.3867 166.005L91.4096 165.898C89.9267 165.818 89.1406 166.467 89.079 167.605Z" fill="white" fill-opacity="0.6"/>
<path d="M82.2227 161.822L76.6349 160.623L77.0441 158.716L84.9931 160.422L82.7901 170.688L75.0317 169.023L75.4408 167.117L80.838 168.275L81.3163 166.046L76.5499 165.023L76.9464 163.175L81.7129 164.198L82.2227 161.822Z" fill="white" fill-opacity="0.6"/>
<path d="M58.8063 162.59L56.6823 161.644L64.0904 153.449L66.4748 154.51L65.6938 161.945L70.7641 156.419L73.1348 157.475L72.0167 168.47L69.7145 167.445L70.5505 159.739L65.2882 165.475L63.2326 164.56L64.0656 156.787L58.8063 162.59Z" fill="white" fill-opacity="0.6"/>
<path d="M57.5907 148.99C58.9513 149.949 60.0389 151.322 60.3839 152.446L58.6549 153.466C58.3035 152.429 57.4841 151.301 56.4545 150.574C55.2777 149.744 54.523 149.8 54.1513 150.327C53.0187 151.932 58.7858 154.348 56.5379 157.535C55.5091 158.994 53.4764 159.377 51.0371 157.657C49.9584 156.896 49.0368 155.86 48.5945 154.796L50.2708 153.72C50.7477 154.736 51.4133 155.536 52.1733 156.072C53.3501 156.902 54.1148 156.78 54.4952 156.241C55.6105 154.66 49.8521 152.232 52.074 149.082C53.0855 147.648 55.1391 147.26 57.5907 148.99Z" fill="white" fill-opacity="0.6"/>
<path d="M41.4747 132.808C42.4294 134.172 42.9871 135.832 42.9305 137.007L40.9581 137.38C40.9792 136.285 40.591 134.946 39.8685 133.913C39.0429 132.734 38.3142 132.53 37.7857 132.899C36.1758 134.026 40.7823 138.254 37.5871 140.49C36.1246 141.513 34.0823 141.185 32.3708 138.74C31.614 137.658 31.098 136.371 31.0428 135.22L32.9844 134.777C33.0888 135.894 33.4438 136.872 33.977 137.634C34.8027 138.813 35.5633 138.959 36.1041 138.58C37.6894 137.471 33.0952 133.234 36.2536 131.024C37.6914 130.018 39.7546 130.35 41.4747 132.808Z" fill="white" fill-opacity="0.6"/>
<path d="M35.96 123.332C37.3933 126.255 36.4297 129.434 33.5881 130.828C30.7465 132.221 27.6429 131.037 26.2029 128.101C25.4037 126.471 25.3291 124.821 25.9706 123.403L27.9504 124.17C27.5336 125.16 27.5462 126.139 28.0086 127.082C28.8739 128.846 30.7272 129.491 32.5049 128.619C34.2826 127.747 34.9073 125.887 34.042 124.123C33.5796 123.18 32.8128 122.57 31.7617 122.301L32.3676 120.266C33.8944 120.62 35.1541 121.689 35.96 123.332Z" fill="white" fill-opacity="0.6"/>
<path d="M30.7217 109.013L31.4614 111.516L29.2303 114.287L29.8638 116.431L32.6688 115.602L33.3576 117.932L23.2882 120.908L22 116.549C21.2049 113.859 22.1029 111.764 24.3613 111.096C25.8717 110.65 27.2047 111.085 28.1526 112.228L30.7217 109.013ZM25.0585 113.456C23.9509 113.783 23.5161 114.693 23.937 116.118L24.4982 118.016L28.0081 116.979L27.4469 115.08C27.0261 113.656 26.1518 113.132 25.0585 113.456Z" fill="white" fill-opacity="0.6"/>
<path d="M28.2048 104.958L27.5019 99.2862L29.437 99.0464L30.4371 107.115L20.0168 108.406L19.0408 100.531L20.976 100.292L21.6549 105.77L23.9176 105.489L23.318 100.651L25.1936 100.419L25.7933 105.257L28.2048 104.958Z" fill="white" fill-opacity="0.6"/>
<path d="M19.711 82.84L19.8991 80.5226L30.0867 84.7959L29.8756 87.3973L22.602 89.1245L29.4957 92.0769L29.2857 94.6634L18.541 97.2526L18.7449 94.7408L26.2925 92.9757L19.1369 89.9117L19.319 87.6691L26.9288 85.8789L19.711 82.84Z" fill="white" fill-opacity="0.6"/>
<path d="M32.0966 77.2945C31.6429 78.8965 30.7088 80.378 29.7626 81.0766L28.2267 79.7841C29.0884 79.1084 29.8811 77.961 30.2245 76.7487C30.6169 75.3632 30.3145 74.6695 29.6939 74.4937C27.8033 73.9582 27.4385 80.2001 23.6861 79.1372C21.9687 78.6508 20.9323 76.8606 21.7458 73.9886C22.1055 72.7186 22.7765 71.5055 23.6339 70.735L25.2047 71.9594C24.405 72.7463 23.8713 73.6396 23.6179 74.5344C23.2254 75.9199 23.5938 76.6011 24.2288 76.7809C26.0905 77.3083 26.4698 71.0705 30.1789 72.1211C31.8675 72.5994 32.9142 74.4081 32.0966 77.2945Z" fill="white" fill-opacity="0.6"/>
<path d="M41.9203 56.866C40.9458 58.2161 39.5611 59.2885 38.433 59.6212L37.4321 57.8812C38.473 57.5411 39.6105 56.7342 40.3479 55.7126C41.1908 54.545 41.144 53.7897 40.621 53.4122C39.0277 52.2621 36.5491 58.0023 33.3869 55.7197C31.9396 54.6749 31.5783 52.6382 33.3254 50.2179C34.098 49.1476 35.1436 48.2373 36.2129 47.8067L37.2699 49.4947C36.2492 49.9604 35.4421 50.6173 34.8978 51.3713C34.0549 52.5389 34.168 53.305 34.7031 53.6913C36.272 54.8238 38.7628 49.0924 41.8885 51.3487C43.3115 52.3759 43.6762 54.4336 41.9203 56.866Z" fill="white" fill-opacity="0.6"/>
<path d="M49.2943 48.2383C47.0011 50.5483 43.6816 50.677 41.4355 48.4472C39.1894 46.2174 39.294 42.8971 41.5978 40.5765C42.8766 39.2884 44.4123 38.6782 45.9614 38.8211L45.8843 40.9427C44.8127 40.8724 43.8912 41.2045 43.1514 41.9497C41.767 43.3442 41.7635 45.3064 43.1687 46.7014C44.5738 48.0964 46.536 48.0786 47.9204 46.6841C48.6602 45.939 48.9856 45.015 48.8968 43.9335L51.0178 43.8409C51.1826 45.3995 50.5836 46.9396 49.2943 48.2383Z" fill="white" fill-opacity="0.6"/>
<path d="M60.8071 38.7659L58.6908 40.2935L55.3369 39.107L53.5247 40.4152L55.2367 42.7868L53.2664 44.2091L47.1208 35.6954L50.806 33.0353C53.0804 31.3935 55.355 31.5461 56.7333 33.4556C57.6552 34.7326 57.6866 36.1344 56.9222 37.4077L60.8071 38.7659ZM54.7387 34.8954C54.0627 33.9589 53.0595 33.8506 51.8554 34.7197L50.25 35.8786L52.3922 38.8462L53.9976 37.6873C55.2017 36.8182 55.4059 35.8197 54.7387 34.8954Z" fill="white" fill-opacity="0.6"/>
<path d="M63.7778 35.0085L68.8901 32.4539L69.7617 34.1983L62.4891 37.8323L57.7957 28.4397L64.8938 24.8928L65.7655 26.6372L60.8276 29.1046L61.8468 31.1441L66.2076 28.965L67.0525 30.6557L62.6916 32.8348L63.7778 35.0085Z" fill="white" fill-opacity="0.6"/>
<path d="M81.8266 19.6208L84.0753 19.0298L83.4225 30.0581L80.8983 30.7216L76.8566 24.4325L76.3575 31.9152L73.8478 32.5749L67.8417 23.297L70.2789 22.6563L74.4473 29.1913L74.9648 21.4246L77.1408 20.8526L81.3534 27.438L81.8266 19.6208Z" fill="white" fill-opacity="0.6"/>
<path d="M91.1878 29.4688C89.526 29.5716 87.8187 29.1812 86.846 28.5199L87.5565 26.6425C88.4797 27.2317 89.8249 27.5994 91.0825 27.5216C92.5198 27.4328 93.074 26.9176 93.0342 26.2738C92.913 24.3126 86.9029 26.0367 86.6623 22.1441C86.5522 20.3625 87.8978 18.7915 90.8772 18.6073C92.1946 18.5259 93.5615 18.757 94.5726 19.3107L93.9378 21.1984C92.9305 20.7046 91.9107 20.4972 90.9825 20.5545C89.5452 20.6434 89.0246 21.2166 89.0653 21.8753C89.1847 23.8066 95.1957 22.0975 95.4335 25.9452C95.5418 27.6969 94.1821 29.2838 91.1878 29.4688Z" fill="white" fill-opacity="0.6"/>
<path d="M114.295 32.0633C112.7 31.5853 111.233 30.6289 110.549 29.6723L111.865 28.1561C112.527 29.028 113.662 29.838 114.869 30.1997C116.249 30.613 116.947 30.3212 117.132 29.7033C117.696 27.821 111.461 27.3617 112.58 23.6258C113.093 21.916 114.898 20.9068 117.758 21.7637C119.022 22.1426 120.225 22.8319 120.982 23.7009L119.734 25.2529C118.96 24.4414 118.074 23.8943 117.183 23.6273C115.804 23.214 115.117 23.5719 114.928 24.2041C114.372 26.0577 120.604 26.5314 119.497 30.2241C118.993 31.9053 117.169 32.9245 114.295 32.0633Z" fill="white" fill-opacity="0.6"/>
<path d="M124.365 35.9937C121.427 34.5931 120.208 31.5028 121.57 28.6458C122.932 25.7889 126.1 24.79 129.052 26.1971C130.69 26.9781 131.774 28.2258 132.151 29.7351L130.123 30.3636C129.835 29.3291 129.217 28.5691 128.269 28.1173C126.496 27.2717 124.643 27.9171 123.79 29.7044C122.938 31.4917 123.604 33.3377 125.378 34.1833C126.325 34.6351 127.305 34.6368 128.296 34.1955L129.085 36.1666C127.668 36.8374 126.017 36.7812 124.365 35.9937Z" fill="white" fill-opacity="0.6"/>
<path d="M137.21 43.8006L135.072 42.304L135.09 38.7465L133.258 37.465L131.581 39.8615L129.59 38.4682L135.611 29.8656L139.335 32.4716C141.633 34.0799 142.236 36.2782 140.886 38.2077C139.983 39.4981 138.669 39.9885 137.216 39.6851L137.21 43.8006ZM138.871 36.7972C139.533 35.8509 139.305 34.8678 138.089 34.0164L136.466 32.8811L134.368 35.8797L135.99 37.015C137.207 37.8664 138.217 37.7312 138.871 36.7972Z" fill="white" fill-opacity="0.6"/>
<path d="M141.698 45.3286L145.797 49.3105L144.438 50.7093L138.607 45.0447L145.923 37.5129L151.615 43.0417L150.256 44.4404L146.296 40.5944L144.708 42.2298L148.205 45.6265L146.888 46.9822L143.391 43.5855L141.698 45.3286Z" fill="white" fill-opacity="0.6"/>
<path d="M162.197 57.2396L163.502 59.1638L152.884 62.2149L151.419 60.0548L156.007 54.1521L148.784 56.1693L147.327 54.0216L154.08 45.2725L155.495 47.3581L150.718 53.4621L158.214 51.3678L159.477 53.2299L154.667 59.3924L162.197 57.2396Z" fill="white" fill-opacity="0.6"/>
<path d="M156.065 69.4105C155.416 67.8771 155.218 66.137 155.519 64.9999L157.525 65.0469C157.276 66.1132 157.376 67.5043 157.867 68.6647C158.428 69.991 159.098 70.3428 159.692 70.0915C161.501 69.3261 157.88 64.2292 161.472 62.71C163.116 62.0146 165.044 62.7624 166.207 65.5116C166.721 66.7273 166.957 68.0934 166.771 69.2309L164.779 69.2589C164.911 68.1447 164.768 67.1139 164.405 66.2574C163.844 64.9311 163.131 64.6303 162.523 64.8874C160.741 65.6412 164.349 70.7439 160.798 72.2456C159.182 72.9293 157.234 72.1736 156.065 69.4105Z" fill="white" fill-opacity="0.6"/>
</svg>
