<svg width="81" height="80" viewBox="0 0 81 80" fill="none" xmlns="http://www.w3.org/2000/svg">
<path d="M76.833 39.9997C76.8329 30.3636 73.0042 21.122 66.1904 14.3083C59.3766 7.49465 50.1351 3.66667 40.499 3.66667C35.7278 3.66671 31.0028 4.60642 26.5947 6.4323C22.1867 8.25821 18.1814 10.9345 14.8076 14.3083C11.4338 17.682 8.75756 21.6874 6.93164 26.0954C5.10576 30.5034 4.16606 35.2284 4.16602 39.9997C4.16602 44.771 5.10577 49.4959 6.93164 53.904C8.7575 58.312 11.4339 62.3173 14.8076 65.6911C18.1814 69.0649 22.1867 71.7421 26.5947 73.568C31.0028 75.3939 35.7278 76.3336 40.499 76.3337C50.1352 76.3337 59.3766 72.5049 66.1904 65.6911C73.0042 58.8773 76.833 49.6359 76.833 39.9997ZM38.6133 53.9577L37.9766 54.7546L37.1924 54.1012L37.833 53.3337L38.6133 53.9577ZM59.9473 27.2917L38.6133 53.9577L37.832 53.3327L37.1924 54.1012L21.1924 40.7682L22.4727 39.2321L37.6885 51.9118L58.3848 26.0417L59.9473 27.2917ZM78.833 39.9997C78.833 50.1663 74.7944 59.9172 67.6055 67.1061C60.4166 74.295 50.6657 78.3337 40.499 78.3337C35.4653 78.3336 30.4807 77.342 25.8301 75.4157C21.1793 73.4893 16.9531 70.6656 13.3936 67.1061C9.83399 63.5466 7.01041 59.3204 5.08398 54.6696C3.15755 50.0188 2.16602 45.0337 2.16602 39.9997C2.16606 34.9659 3.15765 29.9814 5.08398 25.3307C7.01041 20.6799 9.83398 16.4538 13.3936 12.8942C16.9531 9.33463 21.1793 6.51107 25.8301 4.58464C30.4807 2.65831 35.4652 1.66671 40.499 1.66667C50.6657 1.66667 60.4166 5.70532 67.6055 12.8942C74.7942 20.083 78.8329 29.8332 78.833 39.9997Z" fill="#3758A1"/>
</svg>
